<svg width="77" height="77" viewBox="0 0 77 77" fill="none" xmlns="http://www.w3.org/2000/svg">
<path d="M34.8064 63.91C34.8064 63.91 34.5117 66.3102 33.9643 68.1209C33.5011 69.6549 32.7671 70.84 32.701 72.4161C32.6468 73.7155 33.6695 74.7261 38.47 74.8163C42.5486 74.8885 43.9622 73.6072 43.8359 71.8386C43.7156 70.1963 43.0178 68.9631 42.6388 67.0682C42.3681 65.7027 42.1756 64.0784 42.1756 64.0784L34.8064 63.91Z" fill="#835D4E"/>
<path d="M40.3107 16.8016L29.8014 20.6998L22.8113 21.9029C22.8113 21.9029 21.9751 22.9616 23.0639 24.2069C23.852 25.1032 25.1754 25.7469 26.9861 25.7649C29.0254 25.783 29.8496 24.9829 30.0782 25.6627C30.3068 26.3424 27.4914 28.0208 25.9454 28.9291C24.3994 29.8375 19.3463 31.4016 19.1237 33.6634C18.9553 35.4019 20.6878 36.5569 21.542 36.8277C22.6308 37.1705 24.1768 37.0984 24.628 37.1465C25.0792 37.1946 25.2175 38.0548 24.5799 38.5962C23.9422 39.1437 22.2218 39.7332 21.0427 40.1844C19.8636 40.6355 15.0511 42.2297 14.4135 42.5004C13.7758 42.7711 13.0539 43.908 13.5953 45.5864C14.1428 47.2648 16.0918 48.5341 17.8604 49.1717C19.629 49.8094 20.1283 49.5326 20.1283 49.5326C20.1283 49.5326 19.8817 50.4951 18.9974 51.2952C18.1131 52.0953 15.3158 55.073 15.3158 55.073C15.3158 55.073 10.0281 55.2114 9.56488 55.5904C9.10167 55.9694 8.80691 56.8958 9.01745 57.7801C9.228 58.6644 9.90175 60.8962 14.1127 62.1173C18.3236 63.3385 21.145 62.1173 21.145 62.1173C21.145 62.1173 19.7493 64.8003 22.9557 66.0756C25.3739 67.0381 29.0615 65.9072 29.9879 65.6545C30.9143 65.4019 34.1567 64.0544 34.1567 64.0544C34.1567 64.0544 35.041 66.1719 38.6203 66.3283C42.4102 66.4967 45.0631 64.6439 45.0631 64.6439C45.0631 64.6439 50.3087 67.8502 54.3271 66.1598C57.2327 64.9387 56.3063 62.0331 56.3063 62.0331C56.3063 62.0331 61.4015 62.9174 65.1071 61.4436C68.8128 59.9698 69.4023 57.9485 69.4023 56.9379C69.4023 55.9273 67.9285 55.073 67.2547 55.1152C66.581 55.1573 64.6018 54.9166 63.4228 54.4113C62.2437 53.906 60.6556 53.0819 60.6556 53.0819C60.6556 53.0819 57.9004 52.1795 56.0957 50.6215C55.3438 49.9778 55.422 49.3161 56.5168 49.274C57.6117 49.2319 60.9323 49.2619 62.8332 47.8844C64.8304 46.4346 64.8304 45.1412 64.7282 44.5577C64.5778 43.7216 63.6875 43.3847 63.6875 43.3847C63.6875 43.3847 56.0596 40.9784 55.8912 40.7679C55.7228 40.5573 54.5016 39.1677 54.3753 39.0414C54.2489 38.9151 52.1014 38.115 52.5646 37.4834C53.0278 36.8517 55.4641 36.8337 56.8597 35.3779C58.49 33.6755 58.0388 32.1355 57.4914 31.5459C56.9439 30.9564 55.9574 30.6496 55.9574 30.6496C55.9574 30.6496 54.1046 31.197 53.4729 30.9023C52.8413 30.6075 49.8335 27.72 49.8335 27.72C49.8335 27.72 47.2768 26.2943 47.3069 25.8612C47.349 25.2716 49.9297 25.8792 52.0653 25.1874C53.9843 24.5678 53.9121 23.2444 53.7917 22.7451C53.6053 21.963 52.9135 21.6382 52.4503 21.3013C51.981 20.9705 40.3107 16.8016 40.3107 16.8016Z" fill="#0A7C1F"/>
<path d="M36.0276 9.13773C36.0276 9.13773 34.3733 12.5787 31.564 15.7068C27.1005 20.6757 22.7632 21.939 22.7632 21.939C22.7632 21.939 23.3106 23.5391 26.2162 23.4549C29.5007 23.3587 33.7958 21.0126 33.7958 21.0126C33.7958 21.0126 35.0591 24.0444 36.6172 25.813C38.488 27.9366 40.6897 29.4826 42.8915 28.3396C43.7216 27.9065 43.8901 26.1018 42.8915 24.8445C40.4371 21.7525 42.0192 21.9811 42.1937 22.1375C42.1937 22.1375 44.1126 23.6234 47.6438 23.5812C51.175 23.5391 52.4443 21.3073 52.4443 21.3073C52.4443 21.3073 48.0649 18.865 45.2015 15.5384C42.338 12.2117 39.9799 9.34827 39.9799 9.34827L36.0276 9.13773Z" fill="#02AB48"/>
<path d="M34.2168 27.2387C34.2108 27.2448 32.1715 28.5562 29.8795 28.3757C28.887 28.2975 28.1831 27.5576 28.1831 27.5576C28.1831 27.5576 25.9092 28.893 24.7843 29.4705C23.3947 30.1864 21.6141 30.8962 20.6756 31.576C20.2124 31.9129 19.5627 32.6287 19.5627 32.6287C19.5627 32.6287 19.8996 34.1868 22.8473 34.1868C25.7949 34.1868 27.7741 33.8078 29.5848 34.3131C31.3955 34.8184 34.2168 37.6398 36.1959 37.6398C38.1751 37.6398 39.5647 34.9869 41.4596 34.9869C43.3545 34.9869 43.8599 35.9554 46.7654 36.2501C49.6709 36.5449 54.2609 34.8605 55.3136 33.8499C56.7393 32.4783 55.9633 30.6496 55.9633 30.6496C55.9633 30.6496 54.1165 29.9097 52.4562 29.1036C51.0184 28.4058 49.8454 27.7441 49.8454 27.7441C49.8454 27.7441 49.1717 28.502 48.4137 28.4599C47.6557 28.4178 46.5669 27.9847 45.6826 28.6584C44.7983 29.3322 44.2689 30.3909 42.5184 30.6496C38.2172 31.2812 34.2168 27.2387 34.2168 27.2387Z" fill="#02AB48"/>
<path d="M14.3895 42.5245C14.3895 42.5245 13.7759 44.5698 16.6032 45.8391C19.4306 47.1084 24.7424 45.9834 24.989 46.2301C25.2356 46.4767 20.6337 48.9672 23.0399 51.0065C25.9154 53.4428 33.3267 46.182 33.8139 46.182C34.3012 46.182 34.5478 52.1795 37.5195 53.2503C40.4913 54.3211 43.4149 49.9357 45.2195 49.4003C47.0242 48.8649 48.3417 50.4711 50.6757 50.5673C53.7557 50.6937 55.2596 49.8876 55.4521 48.6183C55.6446 47.349 52.9195 45.063 53.5031 44.5758C54.0866 44.0885 55.1092 45.8932 59.2059 45.5984C63.3025 45.3037 63.7116 43.3847 63.7116 43.3847L54.3513 39.0474C54.3513 39.0474 53.0639 40.5814 51.0186 40.6295C48.9733 40.6777 43.8059 39.7994 41.7606 40.3829C39.7152 40.9664 39.0776 43.3065 35.6667 43.1621C32.2559 43.0177 29.9639 40.7258 27.6238 41.8447C25.2838 42.9636 23.5693 44.3953 22.2699 43.5952C21.524 43.132 21.6022 42.4703 21.6684 41.4416C21.7165 40.6596 22.0173 39.8355 22.0173 39.8355L14.3895 42.5245Z" fill="#02AB48"/>
<path d="M9.54077 55.6145C9.54077 55.6145 10.8522 59.1998 17.2468 59.1998C22.709 59.1998 24.628 56.1679 25.6626 55.3017C26.6913 54.4354 27.4373 53.2202 27.7681 53.7556C28.099 54.291 24.4655 58.2132 22.9797 59.657C22.1495 60.4631 21.1208 62.0091 22.6909 63.0017C24.261 63.9942 27.9305 63.537 30.9023 62.2617C33.874 60.9864 34.7402 58.3395 34.7402 58.3395C34.7402 58.3395 32.5144 57.4733 32.0994 54.7903C31.6843 52.1074 31.564 50.9704 30.6977 50.8501C29.8315 50.7238 23.6594 55.7588 19.8395 54.1286C18.0228 53.3526 18.9673 51.3253 18.9673 51.3253C18.9673 51.3253 17.2167 52.7089 14.8646 53.6052C13.0659 54.285 9.54077 55.6145 9.54077 55.6145Z" fill="#02AB48"/>
<path d="M35.9434 58.5441C35.9434 58.5441 35.1734 60.9503 35.3298 61.5398C35.6246 62.6648 36.7254 63.8258 39.4926 63.6152C42.2598 63.4107 43.7818 62.376 43.7457 61.4676C43.7096 60.5593 41.9289 58.2914 42.7952 57.7139C43.6614 57.1364 44.2811 58.4538 45.1473 59.8615C46.0136 61.2691 49.7673 65.8049 53.7316 63.6573C57.359 61.6902 52.4924 57.7981 53.485 57.1785C54.4775 56.5589 56.8296 58.7426 60.415 58.5801C66.7675 58.2914 67.6337 55.1573 67.6337 55.1573C67.6337 55.1573 65.1974 54.5376 63.7957 54.1647C62.3941 53.7917 60.6556 53.0879 60.6556 53.0879C60.6556 53.0879 57.8102 54.5376 53.8519 54.4113C49.8936 54.285 47.5355 52.7209 45.8451 53.0097C44.1547 53.2984 42.8734 55.6866 40.7679 57.0522C37.8383 58.9531 35.9434 58.5441 35.9434 58.5441Z" fill="#02AB48"/>
<path d="M40.5453 10.5454C40.5092 10.6537 39.5347 14.1488 38.494 14.1488C37.4473 14.1488 35.7208 10.401 35.7208 10.401C35.7208 10.401 32.0693 10.2867 31.9009 9.78743C31.6843 9.13774 34.3131 6.36454 34.3131 6.36454C34.3131 6.36454 33.8439 2.54462 34.277 2.18368C34.7643 1.77462 38.1691 4.05454 38.1691 4.05454C38.1691 4.05454 41.6341 2.0754 42.2056 2.50251C42.7831 2.93563 41.7364 6.21415 41.7364 6.21415C41.7364 6.21415 44.5096 8.48204 44.2931 9.09563C44.0765 9.71524 40.5453 10.5454 40.5453 10.5454Z" fill="#FCC11A"/>
<path d="M35.9314 3.33266C35.781 3.45297 36.0697 4.21094 36.8157 5.09523C37.5616 5.97953 38.085 6.71344 38.2474 6.7375C38.4098 6.75555 39.4986 5.36594 39.8776 4.94484C40.2626 4.52375 40.7138 3.68758 40.5814 3.55523C40.3408 3.31461 38.2053 4.80648 38.2053 4.80648C38.2053 4.80648 36.184 3.13414 35.9314 3.33266Z" fill="#FEE56B"/>
<path d="M32.34 9.36633C32.5145 9.49266 36.7735 7.8925 36.8337 7.67594C36.8998 7.42328 35.5644 6.8518 35.1613 6.73148C34.7583 6.61117 34.0304 7.2368 33.3506 7.98273C32.7671 8.60836 32.1956 9.26406 32.34 9.36633Z" fill="#FEE56B"/>
<path d="M39.3724 15.6226C37.2308 15.6526 36.2803 17.1205 36.3044 18.8891C36.3285 20.6576 37.5978 21.8548 39.5949 21.8307C41.5921 21.8066 42.6328 20.4351 42.5607 18.5161C42.5005 16.8437 41.3154 15.5985 39.3724 15.6226Z" fill="#FF5F5E"/>
<path d="M47.6258 27.5516C45.4842 27.5816 44.239 29.1698 44.263 30.9384C44.2871 32.7069 45.6346 34.0785 47.7762 34.0544C49.9719 34.0304 51.0667 32.4603 50.9885 30.5413C50.9284 28.875 49.5688 27.5275 47.6258 27.5516Z" fill="#FCD81E"/>
<path d="M33.2424 28.1712C30.9986 28.2013 29.8015 29.7533 29.8256 31.6362C29.8496 33.5191 31.3535 34.8545 33.4409 34.8245C35.5284 34.8004 36.6834 33.3025 36.6052 31.2632C36.539 29.4826 35.2757 28.1471 33.2424 28.1712Z" fill="#DF0E2B"/>
<path d="M27.317 39.5648C25.0491 39.5888 23.9302 41.2612 23.9542 43.2283C23.9843 45.1954 25.3559 46.4948 27.5636 46.4647C29.7713 46.4346 30.9324 44.9127 30.8542 42.7771C30.782 40.9243 29.4706 39.5407 27.317 39.5648Z" fill="#FFD2B1"/>
<path d="M39.9677 42.9876C37.5855 43.0177 36.5328 44.648 36.5629 46.6151C36.593 48.5822 38.0006 49.9116 40.2144 49.8816C42.4281 49.8515 43.5891 48.3295 43.5109 46.2C43.4387 44.3472 42.1273 42.9636 39.9677 42.9876Z" fill="#FCD81E"/>
<path d="M51.3975 39.5888C48.9972 39.6189 47.8242 41.2852 47.8483 43.2764C47.8783 45.2676 49.274 46.7414 51.5118 46.7174C53.7436 46.6873 55.055 45.0089 54.9708 42.8493C54.9046 40.9664 53.5812 39.5648 51.3975 39.5888Z" fill="#FF5F5D"/>
<path d="M52.6308 56.5529C52.7391 54.3572 51.4397 53.2022 49.635 53.0939C47.8303 52.9856 46.4648 54.0865 46.3385 56.1258C46.2121 58.1651 47.4453 59.5306 49.4064 59.5968C51.1149 59.657 52.5285 58.6523 52.6308 56.5529Z" fill="#C9C9C9"/>
<path d="M28.3036 53.2984C26.0718 53.3285 25.0853 54.8324 25.1093 56.6431C25.1334 58.4538 26.4568 59.681 28.5322 59.6569C30.6076 59.6329 31.6964 58.2252 31.6182 56.2641C31.5581 54.5437 30.3309 53.2684 28.3036 53.2984Z" fill="#FF5F5E"/>
<path d="M26.1979 56.583C26.8476 56.9319 27.0943 55.9874 27.4191 55.6626C27.7439 55.3377 28.5139 54.7903 28.141 54.3151C27.768 53.8398 26.8175 54.1105 26.3724 54.6159C25.7708 55.2896 25.6686 56.3002 26.1979 56.583Z" fill="#F9FFFF"/>
<path d="M47.5295 56.4867C48.1792 56.8356 48.4559 55.8851 48.7266 55.5122C49.0755 55.0369 49.9237 54.7121 49.5508 54.2429C49.1778 53.7676 48.2755 54.0684 47.8303 54.5677C47.2287 55.2415 47.0001 56.198 47.5295 56.4867Z" fill="#F9FFFF"/>
<path d="M49.1837 43.102C49.8996 43.4689 50.1703 42.4342 50.5192 42.0071C50.832 41.6281 51.7464 41.2191 51.3313 40.7198C50.9162 40.2205 49.9417 40.4852 49.4484 41.0085C48.7867 41.7184 48.6002 42.8012 49.1837 43.102Z" fill="#F9FFFF"/>
<path d="M37.8624 46.5429C38.5121 46.8918 38.7587 45.9473 39.0836 45.6225C39.4084 45.2977 40.1784 44.5758 39.8054 44.1005C39.4325 43.6253 38.5121 43.9261 38.0368 44.5758C37.5075 45.3037 37.333 46.2602 37.8624 46.5429Z" fill="#F9FFFF"/>
<path d="M25.1753 43.126C25.825 43.4749 26.2341 42.4884 26.5168 42.1274C27.0642 41.4296 27.5876 41.0567 27.2146 40.5814C26.8417 40.1062 25.8431 40.5092 25.3498 41.1529C24.8084 41.8748 24.652 42.8433 25.1753 43.126Z" fill="#F9FFFF"/>
<path d="M31.1247 31.6121C31.7744 31.961 32.0872 31.0647 32.3459 30.6917C32.7429 30.1202 33.4889 29.645 33.1159 29.1698C32.7429 28.6945 31.8466 28.9472 31.2992 29.645C30.7457 30.3488 30.5954 31.3234 31.1247 31.6121Z" fill="#F9FFFF"/>
<path d="M45.6224 31.3053C46.3322 31.6903 46.6029 30.6496 46.9579 30.2947C47.3128 29.9398 48.161 29.3382 47.7519 28.8209C47.3429 28.3035 46.3022 28.5983 45.8149 29.1457C45.1532 29.8856 45.0389 30.9985 45.6224 31.3053Z" fill="#F9FFFF"/>
<path d="M37.2307 18.8349C37.8804 19.1838 38.1271 18.2394 38.4519 17.9145C38.7767 17.5897 39.5467 17.0423 39.1738 16.567C38.8008 16.0918 38.0489 16.3445 37.5014 16.9881C36.9239 17.6799 36.7014 18.5522 37.2307 18.8349Z" fill="#F9FFFF"/>
<path d="M30.3849 19.4064C29.4585 19.4064 29.0374 19.8034 28.9652 20.6276C28.893 21.4277 29.3923 21.9209 30.1382 21.9751C31.1849 22.0473 31.5098 21.181 31.5098 20.6276C31.5038 20.002 31.0045 19.4064 30.3849 19.4064Z" fill="#F9C319"/>
<path d="M34.3613 22.9376C33.5793 22.4443 32.9055 22.7751 32.5807 23.1782C32.1175 23.7497 32.1897 24.6219 32.8394 24.9769C33.6876 25.4401 34.3673 25.0851 34.644 24.6701C35.0651 24.0444 34.9388 23.3045 34.3613 22.9376Z" fill="#F9C319"/>
<path d="M37.9105 24.6039C37.1104 24.7543 36.7375 25.398 36.8939 26.2101C37.0142 26.8477 37.718 27.2989 38.4399 27.1245C39.4626 26.8838 39.5107 25.9514 39.3422 25.428C39.1618 24.8385 38.5241 24.4956 37.9105 24.6039Z" fill="#F9C319"/>
<path d="M48.0046 20.8742C47.2767 20.3027 46.5308 20.5193 46.1518 20.9945C45.7186 21.5359 45.6826 22.2398 46.23 22.7451C46.8797 23.3406 47.788 23.0278 48.1069 22.6187C48.4738 22.1555 48.4919 21.2592 48.0046 20.8742Z" fill="#F9C319"/>
<path d="M43.8659 24.1888C42.9335 24.1888 42.5064 24.5859 42.4282 25.404C42.356 26.1981 42.8854 26.7154 43.6374 26.7695C44.6961 26.8417 44.9969 25.9514 44.9969 25.404C45.0029 24.7844 44.4976 24.1888 43.8659 24.1888Z" fill="#F9C319"/>
<path d="M27.0643 32.9115C26.1138 32.9115 25.6807 33.3145 25.6025 34.1447C25.5303 34.9508 26.0416 35.4501 26.8056 35.5042C27.8824 35.5824 28.2133 34.6981 28.2133 34.1447C28.2133 33.5131 27.7019 32.9115 27.0643 32.9115Z" fill="#F9C319"/>
<path d="M31.3474 36.19C30.433 35.9012 29.9397 36.178 29.5667 36.9419C29.266 37.5615 29.5667 38.3857 30.3007 38.6323C31.3594 38.9812 31.9008 38.2834 32.0692 37.742C32.2678 37.1284 31.961 36.3825 31.3474 36.19Z" fill="#F9C319"/>
<path d="M37.0263 40.0701C37.0022 39.1076 36.5571 38.6805 35.6728 38.6263C34.8065 38.5722 34.2952 39.1076 34.2591 39.8896C34.211 40.9844 35.1554 41.2973 35.745 41.2792C36.4187 41.2552 37.0443 40.7198 37.0263 40.0701Z" fill="#F9C319"/>
<path d="M41.5739 38.3917C40.5813 38.3917 40.1301 38.8128 40.0459 39.6851C39.9677 40.5333 40.5031 41.0506 41.3032 41.1108C42.4281 41.189 42.777 40.2686 42.777 39.6851C42.777 39.0234 42.2416 38.3917 41.5739 38.3917Z" fill="#F9C319"/>
<path d="M47.1686 36.6713C46.2421 36.6713 45.8211 37.0683 45.7489 37.8924C45.6767 38.6925 46.176 39.1858 46.9219 39.2399C47.9686 39.3121 48.2935 38.4459 48.2935 37.8924C48.2875 37.2728 47.7882 36.6713 47.1686 36.6713Z" fill="#F9C319"/>
<path d="M50.8741 35.5102C51.0606 36.3344 51.6982 36.6472 52.4983 36.4426C53.2743 36.2441 53.5751 35.6125 53.3766 34.8906C53.0999 33.88 52.1675 33.8619 51.6501 34.0484C51.0666 34.253 50.7417 34.9026 50.8741 35.5102Z" fill="#F9C319"/>
<path d="M58.9291 43.9863C58.0508 43.9863 57.6478 44.3713 57.5756 45.1593C57.5034 45.9293 57.9786 46.4045 58.6945 46.4527C59.6931 46.5249 59.9999 45.6887 59.9999 45.1593C59.9999 44.5638 59.5247 43.9863 58.9291 43.9863Z" fill="#F9C319"/>
<path d="M56.18 48.6423C56.2703 47.6257 55.8792 47.1264 54.9889 46.964C54.1227 46.8076 53.5392 47.3069 53.4068 48.119C53.2203 49.262 54.1407 49.7011 54.7423 49.7552C55.4221 49.8154 56.1199 49.3281 56.18 48.6423Z" fill="#F9C319"/>
<path d="M49.9779 49.268C49.0034 49.3101 48.474 49.9778 48.5342 50.9403C48.5943 51.8788 49.2741 52.354 50.1584 52.2758C51.3976 52.1675 51.6202 51.1027 51.5179 50.4651C51.4036 49.7492 50.7178 49.2319 49.9779 49.268Z" fill="#F9C319"/>
<path d="M44.3353 51.2772C43.3427 51.1509 42.7472 51.7344 42.6569 52.6848C42.5727 53.6052 43.1622 54.1587 44.0405 54.2369C45.4602 54.3692 45.6587 53.3225 45.6587 52.6848C45.6587 51.969 45.0632 51.3674 44.3353 51.2772Z" fill="#F9C319"/>
<path d="M37.2789 52.0472C36.3044 52.0893 35.775 52.757 35.8352 53.7195C35.8953 54.658 36.5751 55.1332 37.4594 55.055C38.6986 54.9467 38.9212 53.882 38.8189 53.2443C38.7107 52.5284 38.0189 52.0171 37.2789 52.0472Z" fill="#F9C319"/>
<path d="M31.131 50.1583C30.1745 50.2004 29.6752 50.9583 29.7173 51.7885C29.7594 52.6969 30.4392 53.1601 31.3054 53.0819C32.5206 52.9736 32.7371 51.9389 32.6409 51.3253C32.5266 50.6215 31.8529 50.1222 31.131 50.1583Z" fill="#F9C319"/>
<path d="M25.362 47.8303C24.4055 47.8724 23.8882 48.522 23.9483 49.4545C24.0085 50.3628 24.6642 50.82 25.5304 50.7418C26.7456 50.6335 26.9622 49.6049 26.8659 48.9853C26.7576 48.2935 26.0839 47.8002 25.362 47.8303Z" fill="#F9C319"/>
<path d="M21.7525 43.2644C20.9284 43.3005 20.4832 43.8659 20.5374 44.6841C20.5915 45.4781 21.157 45.8812 21.9029 45.815C22.9496 45.7248 23.1361 44.8224 23.0459 44.281C22.9557 43.6734 22.3721 43.2403 21.7525 43.2644Z" fill="#F9C319"/>
</svg>
